PathFileType	4	(X/Y/Z)	Patient4_TMGait_0pt4_03_left_18.trc.trc
DataRate	CameraRate	NumFrames	NumMarkers	Units	OrigDataRate	OrigDataStartFrame	OrigNumFrames
74.468085106383	74.468085106383	4	33	mm	74.468085106383	124	       141
Frame#	Time	Sacral			L.Shoulder			Chest			R.Shoulder			Neck			R.ASIS			L.ASIS			R.Thigh.Superior			R.Thigh.Lateral			R.Thigh.Inferior			R.Patella			L.Thigh.Superior			L.Thigh.Lateral			L.Thigh.Inferior			L.Patella			L.Shank.Superior			L.Shank.Lateral			L.Shank.Inferior			R.Shank.Superior			R.Shank.Lateral			R.Shank.Inferior			R.Heel			R.Midfoot.Superior			R.Midfoot.Lateral			R.Toe			L.Heel			L.Midfoot.Lateral			L.Midfoot.Superior			L.Toe			L.Elbow			L.Wrist			R.Elbow			R.Wrist			
		X1	Y1	Z1	X2	Y2	Z2	X3	Y3	Z3	X4	Y4	Z4	X5	Y5	Z5	X6	Y6	Z6	X7	Y7	Z7	X8	Y8	Z8	X9	Y9	Z9	X10	Y10	Z10	X11	Y11	Z11	X12	Y12	Z12	X13	Y13	Z13	X14	Y14	Z14	X15	Y15	Z15	X16	Y16	Z16	X17	Y17	Z17	X18	Y18	Z18	X19	Y19	Z19	X20	Y20	Z20	X21	Y21	Z21	X22	Y22	Z22	X23	Y23	Z23	X24	Y24	Z24	X25	Y25	Z25	X26	Y26	Z26	X27	Y27	Z27	X28	Y28	Z28	X29	Y29	Z29	X30	Y30	Z30	X31	Y31	Z31	X32	Y32	Z32	X33	Y33	Z33	

124	25.111714285714	850.929188761837	999.408202304813	529.496594351814	999.549083117705	1420.189734883220	312.112428154748	1129.244502244002	1355.318843608864	454.700147046869	1079.348400531986	1434.971348678355	638.463223618885	1010.378509578263	1487.042964736769	466.947828964148	1092.539374481973	933.986037051077	614.212673416500	1041.281257500876	954.129602952793	343.225514425229	1098.290291034148	723.688413174367	583.023941692324	1005.910437040003	623.548345313463	652.411214466470	1062.989968213764	562.162579723782	566.582429217818	1047.667131321334	473.928822968237	573.463375551419	1116.202411018089	760.386549890235	367.686228406126	1054.419142210302	634.585583240857	298.522059065129	1157.580367426443	571.874305418772	356.826516345054	1181.664910467286	509.042224646256	353.943507742046	1164.353490890500	439.409157816325	344.249163753797	1097.494232842367	308.913808633702	297.252362996188	1188.086513169895	210.937081288999	348.184968252938	1006.202850550098	389.991390360015	582.235722214551	923.918223270272	297.587082817832	648.552800578825	944.991105518231	198.312161772778	582.263104115888	791.856201121213	43.401611391686	557.044756969214	962.131834521626	95.075914118444	592.065128175505	874.899161992578	36.459096078100	631.273979701798	1083.072575595530	42.055855928073	620.441315391878	1104.421033427499	39.054150950808	390.868456275848	1176.277486035660	39.163742172076	309.193753010810	1252.922368692495	109.748993467919	329.383704950707	1383.113972251831	70.820838725050	299.249999811624	906.379953762385	1072.468223170968	224.549752792384	953.816882319364	815.069603090897	197.077088158198	1169.221140213439	1096.503479572242	743.968732395186	1377.921573721370	1065.211924431114	605.043534444676	
125	25.125142857143	851.909179130079	998.543154585247	527.187640250076	999.376646834437	1419.136411545395	309.154857273291	1129.157703844688	1354.946101862229	451.969223988277	1078.758054493167	1434.564428691136	635.588772358774	1009.920410298584	1486.307975044355	463.940096361752	1093.438235421622	933.415734069254	612.497554506842	1042.719929134125	953.106798036088	341.470042339023	1097.963650567937	722.573526322315	582.002267162092	1004.201711103412	623.155403780330	651.194491355398	1060.932953051834	561.100189736082	565.758778528308	1044.705073012221	472.887777979313	572.480704532453	1117.926116435490	759.195447470282	365.850797939891	1054.559553131544	633.008850387461	298.283150073340	1158.160354788752	570.782784182584	356.093987729209	1181.290514499018	507.188608766394	354.010684142711	1163.466322140997	437.145885575107	344.508760957829	1094.877446222070	307.362190505911	298.174375393904	1184.068039050413	208.443559072599	349.381745473318	1002.705229673871	389.347381995295	581.387490922984	919.770239612525	297.662625583334	647.963786475838	940.241200932516	198.047513823394	581.983310890275	786.407105491099	43.312011139683	557.115522860206	956.732043462209	95.033380529507	592.041093019935	869.486959547391	36.310836354883	631.244314649372	1077.724691824810	41.909365218883	620.538590147013	1097.316730623690	38.909077422724	392.862148126444	1168.349825812526	38.149122009299	310.367463655117	1247.079277902005	106.316871136937	330.747948740193	1376.161663943566	64.222092764865	298.844679551523	907.642956344847	1071.009847415736	221.780159894106	955.917271599119	813.768366092635	194.380781879825	1171.207869288152	1096.104836287066	739.253223141690	1378.434281489819	1064.182300086710	598.018814704231	
126	25.138571428571	852.942405164516	997.837924548772	524.785255554198	999.242793498640	1418.128347661957	305.983791653044	1129.150517251617	1354.652818996075	449.001872055203	1078.296700043842	1434.285290972556	632.482503273047	1009.529190697910	1485.657182712305	460.702712226041	1094.361871925466	932.897165400330	610.632485207443	1044.224731241480	952.239105063229	339.594876522378	1097.753430476884	721.459382153621	580.875293089744	1002.655415221516	622.734808125575	649.799226456565	1059.100925769559	560.054629523114	564.705543330406	1042.078145937458	471.740960185725	571.325133779123	1119.909652684826	758.464148856929	364.196201162466	1055.391165238823	631.933685075745	297.855983250379	1159.283677013324	570.237660664774	355.428387484214	1181.310084282760	505.774015736466	354.147370889426	1163.097544081174	435.200109240213	344.665182263504	1092.900213020218	306.216533580625	298.511073121670	1180.332435295095	206.247817053732	350.359779748802	999.399796723234	388.666100111590	580.387869623524	915.717540556866	297.804144862387	647.245762944397	935.559543796243	197.806195936161	581.631024265452	780.923644222883	43.279928115219	557.176138029409	951.361950413824	94.981575530729	591.989217824350	864.070549597418	36.169899681954	631.196517111881	1072.397469393204	41.731068334120	620.642026847862	1090.309869205654	38.775155425961	394.320621200837	1160.676178529742	37.360768599548	311.136710126944	1241.176665741479	103.448036295673	331.831071220547	1369.334740572413	58.674589809513	298.417305673318	909.098278107488	1069.560496114684	218.732532408002	958.423224603775	812.540002185553	191.263994048973	1172.659033591603	1095.844210016723	734.946609168192	1378.381399801449	1062.526941673469	591.558097640200	
127	25.152000000000	853.988758988896	997.346535300019	522.315127572313	999.167325809485	1417.188852688374	302.602523881201	1129.238881582059	1354.444175697859	445.796633126728	1078.015546800588	1434.182404484150	629.132461601183	1009.236898986351	1485.122560544264	457.227110492532	1095.260152071327	932.469701689088	608.631961463653	1045.736357608830	951.558445637695	337.602194553667	1097.673670772849	720.402952720097	579.611121693087	1001.390400670265	622.284587897917	648.213473253993	1057.639493644501	559.062763478396	563.386311493010	1039.996847617363	470.469193248010	570.012244789080	1122.081721706750	758.237736186713	362.775206962111	1056.885712160282	631.412779877651	297.212969563536	1160.860978080444	570.223350184787	354.805422997948	1181.640749533727	504.821273241151	354.296604919980	1163.183598364143	433.628169604741	344.681897721758	1091.575559769802	305.499237082898	298.234136995927	1176.950628520912	204.436872230410	351.087378013870	996.441887927722	387.948344875592	579.247942721795	911.869396606380	298.053344971880	646.394129045081	931.029946551108	197.621647383679	581.208362984458	775.426181313302	43.418836915584	557.221189360425	946.066397305537	94.934096543657	591.915496174500	858.663027062545	36.097400140718	631.125841708037	1067.093371155172	41.507845349526	620.748861448340	1083.636550197711	38.657847209520	395.242738734747	1153.521268914579	36.795371027642	311.532317565473	1235.390586225739	101.253800363884	332.608991092727	1362.850231062347	54.412687028831	298.035121321408	910.732146509460	1068.149171272520	215.422208655468	961.329753970063	811.414805448550	187.767798458252	1173.557950064832	1095.760074376149	731.090933063250	1377.740662216679	1060.285540114965	585.727794782153	
